<svg width="312" height="154" viewBox="0 0 312 154" fill="none" xmlns="http://www.w3.org/2000/svg">
<path d="M64.4473 29.9746C62.7122 32.0905 60.9772 34.1852 59.2422 36.2588C57.5495 38.3324 55.8991 40.4482 54.291 42.6064C53.4447 43.7067 52.7041 44.7435 52.0693 45.7168C51.4769 46.6478 50.9691 47.5999 50.5459 48.5732C50.1227 49.5465 49.8053 50.5833 49.5938 51.6836C49.4245 52.7839 49.3398 54.0111 49.3398 55.3652V106.21C49.3398 110.399 48.5146 114.42 46.8643 118.271C45.2562 122.079 43.0557 125.443 40.2627 128.363C37.4697 131.326 34.2113 133.674 30.4873 135.409C26.7633 137.144 22.7855 138.012 18.5537 138.012C15.0837 138.012 11.8252 137.398 8.77832 136.171C5.68913 134.944 2.83268 133.23 0.208984 131.029L10.873 121.508C11.5078 122.82 12.3965 124.153 13.5391 125.507C14.6816 126.903 15.9512 128.173 17.3477 129.315C18.7441 130.458 20.2041 131.389 21.7275 132.108C23.2933 132.87 24.8379 133.251 26.3613 133.251C28.4349 133.251 30.1064 132.743 31.376 131.728C32.6878 130.712 33.6823 129.421 34.3594 127.855C35.0788 126.332 35.5654 124.639 35.8193 122.777C36.0732 120.958 36.2002 119.244 36.2002 117.636V62.7285C36.2002 60.7396 36.6022 58.793 37.4062 56.8887C38.2526 54.9844 39.3105 53.1859 40.5801 51.4932C41.8496 49.7581 43.2461 48.1501 44.7695 46.6689C46.293 45.1878 47.7741 43.8337 49.2129 42.6064H35.1846C33.5765 42.6064 32.1377 42.7757 30.8682 43.1143C29.5986 43.4105 28.4137 43.8548 27.3135 44.4473C26.2555 45.0397 25.2399 45.7803 24.2666 46.6689C23.2933 47.5576 22.2988 48.5944 21.2832 49.7793L19.4424 47.6846C20.8812 45.738 22.5951 43.7279 24.584 41.6543C26.5729 39.5384 28.71 37.6341 30.9951 35.9414C33.3226 34.2064 35.7559 32.7887 38.2949 31.6885C40.8763 30.5459 43.4788 29.9746 46.1025 29.9746H64.4473ZM118.974 113.573C118 115.647 116.858 117.234 115.546 118.334C114.234 119.434 112.986 120.238 111.801 120.746C110.404 121.339 108.987 121.677 107.548 121.762C105.644 121.762 104.078 121.465 102.851 120.873C101.666 120.281 100.714 119.498 99.9941 118.524C99.2747 117.551 98.7669 116.451 98.4707 115.224C98.2168 113.996 98.0898 112.748 98.0898 111.479V91.2295C97.7513 92.7529 97.307 94.5726 96.7568 96.6885C96.249 98.8044 95.6143 101.026 94.8525 103.354C94.0908 105.639 93.2021 107.924 92.1865 110.209C91.1709 112.452 89.986 114.462 88.6318 116.239C87.32 118.017 85.8177 119.477 84.125 120.619C82.4746 121.719 80.6126 122.27 78.5391 122.27C76.804 122.27 75.4287 121.931 74.4131 121.254C73.4398 120.619 72.6992 119.709 72.1914 118.524C71.7259 117.297 71.4297 115.858 71.3027 114.208C71.2181 112.515 71.1758 110.653 71.1758 108.622V81.0732C71.1758 80.0576 70.943 79.2536 70.4775 78.6611C70.012 78.0687 69.3984 77.7725 68.6367 77.7725C67.9173 77.7301 67.1133 77.984 66.2246 78.5342C65.3359 79.0843 64.4684 79.973 63.6221 81.2002L61.9082 79.2959C62.8815 77.2646 64.0029 75.6989 65.2725 74.5986C66.542 73.4561 67.7904 72.6309 69.0176 72.123C70.4141 71.5306 71.8529 71.1921 73.334 71.1074C75.2383 71.1074 76.7829 71.4036 77.9678 71.9961C79.195 72.5885 80.1471 73.3714 80.8242 74.3447C81.5436 75.2757 82.0303 76.3548 82.2842 77.582C82.5804 78.8092 82.7285 80.0576 82.7285 81.3271V107.606C82.7285 109.257 83.0247 110.336 83.6172 110.844C84.2096 111.352 84.9714 111.288 85.9023 110.653C86.8757 109.976 87.9336 108.77 89.0762 107.035C90.2611 105.258 91.446 102.93 92.6309 100.053C93.3926 97.3021 94.1331 94.4668 94.8525 91.5469C95.445 89.0501 96.0374 86.2995 96.6299 83.2949C97.2646 80.2904 97.7513 77.3916 98.0898 74.5986L109.77 70.5361V111.796C109.77 112.812 110.002 113.616 110.468 114.208C110.933 114.8 111.526 115.118 112.245 115.16C112.965 115.16 113.747 114.885 114.594 114.335C115.482 113.785 116.35 112.896 117.196 111.669L118.974 113.573ZM196.605 113.573C195.632 115.647 194.49 117.234 193.178 118.334C191.866 119.434 190.618 120.238 189.433 120.746C188.036 121.339 186.618 121.677 185.18 121.762C183.275 121.762 181.71 121.465 180.482 120.873C179.298 120.281 178.345 119.498 177.626 118.524C176.907 117.551 176.399 116.451 176.103 115.224C175.849 113.996 175.722 112.748 175.722 111.479V84.8818C175.722 84.2048 175.595 83.6123 175.341 83.1045C175.087 82.5544 174.748 82.237 174.325 82.1523C173.902 82.0677 173.394 82.2793 172.802 82.7871C172.209 83.2949 171.575 84.2048 170.897 85.5166C169.755 88.902 168.718 92.4567 167.787 96.1807C166.983 99.3968 166.243 103.036 165.565 107.099C164.931 111.119 164.571 115.266 164.486 119.54L152.807 123.603V84.8818C152.807 84.2048 152.68 83.6123 152.426 83.1045C152.172 82.5544 151.812 82.237 151.347 82.1523C150.924 82.0677 150.416 82.2793 149.823 82.7871C149.231 83.2949 148.617 84.2048 147.982 85.5166C146.713 89.0713 145.613 92.7741 144.682 96.625C144.258 98.2754 143.856 100.032 143.476 101.894C143.095 103.756 142.756 105.681 142.46 107.67C142.206 109.617 141.994 111.605 141.825 113.637C141.656 115.626 141.592 117.593 141.635 119.54L130.082 123.603V80.9463C130.082 79.9307 129.849 79.1266 129.384 78.5342C128.918 77.9417 128.305 77.6455 127.543 77.6455C126.824 77.6032 126.02 77.8571 125.131 78.4072C124.242 78.9574 123.375 79.846 122.528 81.0732L120.814 79.1689C121.788 77.1377 122.909 75.5719 124.179 74.4717C125.491 73.3291 126.76 72.5039 127.987 71.9961C129.384 71.4036 130.823 71.0651 132.304 70.9805C134.166 70.9805 135.689 71.2767 136.874 71.8691C138.101 72.4616 139.053 73.2445 139.73 74.2178C140.45 75.1488 140.937 76.2279 141.19 77.4551C141.487 78.6823 141.635 79.9307 141.635 81.2002V94.5938C142.396 90.7852 143.539 87.4209 145.062 84.501C146.586 81.5811 148.173 79.1266 149.823 77.1377C151.516 75.1064 153.166 73.583 154.774 72.5674C156.382 71.5094 157.673 70.9805 158.646 70.9805C159.874 70.9805 160.868 71.1921 161.63 71.6152C162.392 71.9961 162.984 72.5885 163.407 73.3926C163.83 74.1966 164.105 75.1911 164.232 76.376C164.402 77.5186 164.486 78.8727 164.486 80.4385V94.5938C165.29 90.7852 166.433 87.4209 167.914 84.501C169.438 81.5811 171.046 79.1266 172.738 77.1377C174.431 75.1064 176.081 73.583 177.689 72.5674C179.298 71.5094 180.588 70.9805 181.562 70.9805C183.974 70.9805 185.539 71.7845 186.259 73.3926C187.021 74.9583 187.401 77.307 187.401 80.4385V111.796C187.401 112.812 187.634 113.616 188.1 114.208C188.565 114.8 189.158 115.118 189.877 115.16C190.596 115.16 191.379 114.885 192.226 114.335C193.114 113.785 193.982 112.896 194.828 111.669L196.605 113.573ZM244.657 116.303C244.657 118.799 244.319 121.339 243.642 123.92C242.965 126.544 241.991 129.104 240.722 131.601C239.494 134.097 238.013 136.446 236.278 138.646C234.543 140.889 232.597 142.836 230.438 144.486C228.323 146.137 226.016 147.449 223.52 148.422C221.065 149.395 218.505 149.882 215.839 149.882C214.146 149.882 212.517 149.607 210.951 149.057C209.428 148.507 208.052 147.639 206.825 146.454L215.204 138.52C216.093 139.704 217.13 140.657 218.314 141.376C219.499 142.095 220.832 142.455 222.313 142.455C224.472 142.455 226.228 142.032 227.582 141.186C228.936 140.382 230.015 139.281 230.819 137.885C231.623 136.531 232.195 134.965 232.533 133.188C232.872 131.452 233.083 129.654 233.168 127.792C233.253 125.93 233.253 124.11 233.168 122.333C233.126 120.556 233.104 118.948 233.104 117.509V110.209C232.343 111.648 231.475 113.087 230.502 114.525C229.571 115.964 228.492 117.255 227.265 118.397C226.08 119.54 224.747 120.471 223.266 121.19C221.785 121.91 220.134 122.27 218.314 122.27C215.564 122.27 213.131 121.741 211.015 120.683C208.899 119.625 207.121 118.207 205.683 116.43C204.244 114.61 203.165 112.494 202.445 110.082C201.726 107.67 201.366 105.11 201.366 102.401C201.366 99.9469 201.662 97.4714 202.255 94.9746C202.847 92.4355 203.673 90.0023 204.73 87.6748C205.831 85.3473 207.164 83.168 208.729 81.1367C210.338 79.1055 212.115 77.3493 214.062 75.8682C216.05 74.3447 218.23 73.1598 220.6 72.3135C222.969 71.4248 225.487 70.9805 228.153 70.9805C229.761 70.9805 231.369 71.1709 232.978 71.5518C234.586 71.9326 236.109 72.5251 237.548 73.3291C239.029 74.0908 240.362 75.043 241.547 76.1855C242.774 77.3281 243.769 78.6611 244.53 80.1846L235.072 84.1836C234.564 83.3796 233.972 82.5755 233.295 81.7715C232.66 80.9251 231.941 80.1634 231.137 79.4863C230.375 78.8092 229.529 78.2591 228.598 77.8359C227.709 77.4128 226.778 77.2012 225.805 77.2012C224.366 77.2012 223.012 77.5397 221.742 78.2168C220.515 78.8939 219.372 79.7826 218.314 80.8828C217.299 81.9831 216.389 83.2526 215.585 84.6914C214.781 86.0879 214.104 87.5479 213.554 89.0713C213.004 90.5947 212.58 92.097 212.284 93.5781C212.03 95.0592 211.903 96.3923 211.903 97.5771C211.903 99.1852 212.051 101.005 212.348 103.036C212.686 105.025 213.257 106.908 214.062 108.686C214.866 110.463 215.924 111.965 217.235 113.192C218.547 114.42 220.198 115.033 222.187 115.033C223.752 115.033 225.106 114.695 226.249 114.018C227.392 113.298 228.365 112.388 229.169 111.288C229.973 110.146 230.629 108.855 231.137 107.416C231.687 105.935 232.089 104.433 232.343 102.909C232.639 101.386 232.829 99.8835 232.914 98.4023C233.041 96.8789 233.104 95.5247 233.104 94.3398V89.96L244.657 85.8975V116.303ZM308.007 113.446C307.499 114.547 306.864 115.583 306.103 116.557C305.341 117.53 304.452 118.397 303.437 119.159C302.463 119.921 301.384 120.535 300.199 121C299.057 121.423 297.851 121.635 296.581 121.635C293.238 121.635 290.826 120.725 289.345 118.905C287.906 117.043 287.187 114.525 287.187 111.352V110.209C286.425 111.648 285.557 113.087 284.584 114.525C283.653 115.964 282.574 117.255 281.347 118.397C280.162 119.54 278.829 120.471 277.348 121.19C275.867 121.91 274.216 122.27 272.396 122.27C269.646 122.27 267.213 121.741 265.097 120.683C262.981 119.625 261.203 118.207 259.765 116.43C258.326 114.61 257.247 112.494 256.527 110.082C255.808 107.67 255.448 105.11 255.448 102.401C255.448 98.7197 256.083 95.0592 257.353 91.4199C258.664 87.7383 260.484 84.4587 262.812 81.5811C265.181 78.7035 267.995 76.376 271.254 74.5986C274.555 72.779 278.215 71.8691 282.235 71.8691C283.843 71.8691 285.451 72.0173 287.06 72.3135C288.668 72.6097 290.191 73.0964 291.63 73.7734C293.111 74.4082 294.444 75.2546 295.629 76.3125C296.856 77.3704 297.851 78.6611 298.612 80.1846L289.154 84.1836C288.646 83.3796 288.054 82.6178 287.377 81.8984C286.742 81.1367 286.023 80.4808 285.219 79.9307C284.457 79.3805 283.632 78.9362 282.743 78.5977C281.854 78.2591 280.924 78.0898 279.95 78.0898C277.75 78.0898 275.782 78.7669 274.047 80.1211C272.354 81.4753 270.894 83.1468 269.667 85.1357C268.482 87.1247 267.572 89.2406 266.938 91.4834C266.303 93.7262 265.985 95.7575 265.985 97.5771C265.985 99.1852 266.133 101.005 266.43 103.036C266.768 105.025 267.34 106.908 268.144 108.686C268.948 110.463 270.006 111.965 271.317 113.192C272.629 114.42 274.28 115.033 276.269 115.033C277.834 115.033 279.188 114.695 280.331 114.018C281.474 113.298 282.447 112.388 283.251 111.288C284.055 110.146 284.711 108.855 285.219 107.416C285.769 105.935 286.171 104.433 286.425 102.909C286.721 101.386 286.911 99.8835 286.996 98.4023C287.123 96.8789 287.187 95.5247 287.187 94.3398V89.96L298.739 85.8975V111.669C298.739 112.515 298.951 113.298 299.374 114.018C299.797 114.695 300.453 115.033 301.342 115.033C302.4 115.033 303.352 114.652 304.198 113.891C305.087 113.087 305.785 112.283 306.293 111.479L308.007 113.446Z" fill="black"/>
<path d="M67.4473 31.9746C65.7122 34.0905 63.9772 36.1852 62.2422 38.2588C60.5495 40.3324 58.8991 42.4482 57.291 44.6064C56.4447 45.7067 55.7041 46.7435 55.0693 47.7168C54.4769 48.6478 53.9691 49.5999 53.5459 50.5732C53.1227 51.5465 52.8053 52.5833 52.5938 53.6836C52.4245 54.7839 52.3398 56.0111 52.3398 57.3652V108.21C52.3398 112.399 51.5146 116.42 49.8643 120.271C48.2562 124.079 46.0557 127.443 43.2627 130.363C40.4697 133.326 37.2113 135.674 33.4873 137.409C29.7633 139.144 25.7855 140.012 21.5537 140.012C18.0837 140.012 14.8252 139.398 11.7783 138.171C8.68913 136.944 5.83268 135.23 3.20898 133.029L13.873 123.508C14.5078 124.82 15.3965 126.153 16.5391 127.507C17.6816 128.903 18.9512 130.173 20.3477 131.315C21.7441 132.458 23.2041 133.389 24.7275 134.108C26.2933 134.87 27.8379 135.251 29.3613 135.251C31.4349 135.251 33.1064 134.743 34.376 133.728C35.6878 132.712 36.6823 131.421 37.3594 129.855C38.0788 128.332 38.5654 126.639 38.8193 124.777C39.0732 122.958 39.2002 121.244 39.2002 119.636V64.7285C39.2002 62.7396 39.6022 60.793 40.4062 58.8887C41.2526 56.9844 42.3105 55.1859 43.5801 53.4932C44.8496 51.7581 46.2461 50.1501 47.7695 48.6689C49.293 47.1878 50.7741 45.8337 52.2129 44.6064H38.1846C36.5765 44.6064 35.1377 44.7757 33.8682 45.1143C32.5986 45.4105 31.4137 45.8548 30.3135 46.4473C29.2555 47.0397 28.2399 47.7803 27.2666 48.6689C26.2933 49.5576 25.2988 50.5944 24.2832 51.7793L22.4424 49.6846C23.8812 47.738 25.5951 45.7279 27.584 43.6543C29.5729 41.5384 31.71 39.6341 33.9951 37.9414C36.3226 36.2064 38.7559 34.7887 41.2949 33.6885C43.8763 32.5459 46.4788 31.9746 49.1025 31.9746H67.4473ZM121.974 115.573C121 117.647 119.858 119.234 118.546 120.334C117.234 121.434 115.986 122.238 114.801 122.746C113.404 123.339 111.987 123.677 110.548 123.762C108.644 123.762 107.078 123.465 105.851 122.873C104.666 122.281 103.714 121.498 102.994 120.524C102.275 119.551 101.767 118.451 101.471 117.224C101.217 115.996 101.09 114.748 101.09 113.479V93.2295C100.751 94.7529 100.307 96.5726 99.7568 98.6885C99.249 100.804 98.6143 103.026 97.8525 105.354C97.0908 107.639 96.2021 109.924 95.1865 112.209C94.1709 114.452 92.986 116.462 91.6318 118.239C90.32 120.017 88.8177 121.477 87.125 122.619C85.4746 123.719 83.6126 124.27 81.5391 124.27C79.804 124.27 78.4287 123.931 77.4131 123.254C76.4398 122.619 75.6992 121.709 75.1914 120.524C74.7259 119.297 74.4297 117.858 74.3027 116.208C74.2181 114.515 74.1758 112.653 74.1758 110.622V83.0732C74.1758 82.0576 73.943 81.2536 73.4775 80.6611C73.012 80.0687 72.3984 79.7725 71.6367 79.7725C70.9173 79.7301 70.1133 79.984 69.2246 80.5342C68.3359 81.0843 67.4684 81.973 66.6221 83.2002L64.9082 81.2959C65.8815 79.2646 67.0029 77.6989 68.2725 76.5986C69.542 75.4561 70.7904 74.6309 72.0176 74.123C73.4141 73.5306 74.8529 73.1921 76.334 73.1074C78.2383 73.1074 79.7829 73.4036 80.9678 73.9961C82.195 74.5885 83.1471 75.3714 83.8242 76.3447C84.5436 77.2757 85.0303 78.3548 85.2842 79.582C85.5804 80.8092 85.7285 82.0576 85.7285 83.3271V109.606C85.7285 111.257 86.0247 112.336 86.6172 112.844C87.2096 113.352 87.9714 113.288 88.9023 112.653C89.8757 111.976 90.9336 110.77 92.0762 109.035C93.2611 107.258 94.446 104.93 95.6309 102.053C96.3926 99.3021 97.1331 96.4668 97.8525 93.5469C98.445 91.0501 99.0374 88.2995 99.6299 85.2949C100.265 82.2904 100.751 79.3916 101.09 76.5986L112.77 72.5361V113.796C112.77 114.812 113.002 115.616 113.468 116.208C113.933 116.8 114.526 117.118 115.245 117.16C115.965 117.16 116.747 116.885 117.594 116.335C118.482 115.785 119.35 114.896 120.196 113.669L121.974 115.573ZM199.605 115.573C198.632 117.647 197.49 119.234 196.178 120.334C194.866 121.434 193.618 122.238 192.433 122.746C191.036 123.339 189.618 123.677 188.18 123.762C186.275 123.762 184.71 123.465 183.482 122.873C182.298 122.281 181.345 121.498 180.626 120.524C179.907 119.551 179.399 118.451 179.103 117.224C178.849 115.996 178.722 114.748 178.722 113.479V86.8818C178.722 86.2048 178.595 85.6123 178.341 85.1045C178.087 84.5544 177.748 84.237 177.325 84.1523C176.902 84.0677 176.394 84.2793 175.802 84.7871C175.209 85.2949 174.575 86.2048 173.897 87.5166C172.755 90.902 171.718 94.4567 170.787 98.1807C169.983 101.397 169.243 105.036 168.565 109.099C167.931 113.119 167.571 117.266 167.486 121.54L155.807 125.603V86.8818C155.807 86.2048 155.68 85.6123 155.426 85.1045C155.172 84.5544 154.812 84.237 154.347 84.1523C153.924 84.0677 153.416 84.2793 152.823 84.7871C152.231 85.2949 151.617 86.2048 150.982 87.5166C149.713 91.0713 148.613 94.7741 147.682 98.625C147.258 100.275 146.856 102.032 146.476 103.894C146.095 105.756 145.756 107.681 145.46 109.67C145.206 111.617 144.994 113.605 144.825 115.637C144.656 117.626 144.592 119.593 144.635 121.54L133.082 125.603V82.9463C133.082 81.9307 132.849 81.1266 132.384 80.5342C131.918 79.9417 131.305 79.6455 130.543 79.6455C129.824 79.6032 129.02 79.8571 128.131 80.4072C127.242 80.9574 126.375 81.846 125.528 83.0732L123.814 81.1689C124.788 79.1377 125.909 77.5719 127.179 76.4717C128.491 75.3291 129.76 74.5039 130.987 73.9961C132.384 73.4036 133.823 73.0651 135.304 72.9805C137.166 72.9805 138.689 73.2767 139.874 73.8691C141.101 74.4616 142.053 75.2445 142.73 76.2178C143.45 77.1488 143.937 78.2279 144.19 79.4551C144.487 80.6823 144.635 81.9307 144.635 83.2002V96.5938C145.396 92.7852 146.539 89.4209 148.062 86.501C149.586 83.5811 151.173 81.1266 152.823 79.1377C154.516 77.1064 156.166 75.583 157.774 74.5674C159.382 73.5094 160.673 72.9805 161.646 72.9805C162.874 72.9805 163.868 73.1921 164.63 73.6152C165.392 73.9961 165.984 74.5885 166.407 75.3926C166.83 76.1966 167.105 77.1911 167.232 78.376C167.402 79.5186 167.486 80.8727 167.486 82.4385V96.5938C168.29 92.7852 169.433 89.4209 170.914 86.501C172.438 83.5811 174.046 81.1266 175.738 79.1377C177.431 77.1064 179.081 75.583 180.689 74.5674C182.298 73.5094 183.588 72.9805 184.562 72.9805C186.974 72.9805 188.539 73.7845 189.259 75.3926C190.021 76.9583 190.401 79.307 190.401 82.4385V113.796C190.401 114.812 190.634 115.616 191.1 116.208C191.565 116.8 192.158 117.118 192.877 117.16C193.596 117.16 194.379 116.885 195.226 116.335C196.114 115.785 196.982 114.896 197.828 113.669L199.605 115.573ZM247.657 118.303C247.657 120.799 247.319 123.339 246.642 125.92C245.965 128.544 244.991 131.104 243.722 133.601C242.494 136.097 241.013 138.446 239.278 140.646C237.543 142.889 235.597 144.836 233.438 146.486C231.323 148.137 229.016 149.449 226.52 150.422C224.065 151.395 221.505 151.882 218.839 151.882C217.146 151.882 215.517 151.607 213.951 151.057C212.428 150.507 211.052 149.639 209.825 148.454L218.204 140.52C219.093 141.704 220.13 142.657 221.314 143.376C222.499 144.095 223.832 144.455 225.313 144.455C227.472 144.455 229.228 144.032 230.582 143.186C231.936 142.382 233.015 141.281 233.819 139.885C234.623 138.531 235.195 136.965 235.533 135.188C235.872 133.452 236.083 131.654 236.168 129.792C236.253 127.93 236.253 126.11 236.168 124.333C236.126 122.556 236.104 120.948 236.104 119.509V112.209C235.343 113.648 234.475 115.087 233.502 116.525C232.571 117.964 231.492 119.255 230.265 120.397C229.08 121.54 227.747 122.471 226.266 123.19C224.785 123.91 223.134 124.27 221.314 124.27C218.564 124.27 216.131 123.741 214.015 122.683C211.899 121.625 210.121 120.207 208.683 118.43C207.244 116.61 206.165 114.494 205.445 112.082C204.726 109.67 204.366 107.11 204.366 104.401C204.366 101.947 204.662 99.4714 205.255 96.9746C205.847 94.4355 206.673 92.0023 207.73 89.6748C208.831 87.3473 210.164 85.168 211.729 83.1367C213.338 81.1055 215.115 79.3493 217.062 77.8682C219.05 76.3447 221.23 75.1598 223.6 74.3135C225.969 73.4248 228.487 72.9805 231.153 72.9805C232.761 72.9805 234.369 73.1709 235.978 73.5518C237.586 73.9326 239.109 74.5251 240.548 75.3291C242.029 76.0908 243.362 77.043 244.547 78.1855C245.774 79.3281 246.769 80.6611 247.53 82.1846L238.072 86.1836C237.564 85.3796 236.972 84.5755 236.295 83.7715C235.66 82.9251 234.941 82.1634 234.137 81.4863C233.375 80.8092 232.529 80.2591 231.598 79.8359C230.709 79.4128 229.778 79.2012 228.805 79.2012C227.366 79.2012 226.012 79.5397 224.742 80.2168C223.515 80.8939 222.372 81.7826 221.314 82.8828C220.299 83.9831 219.389 85.2526 218.585 86.6914C217.781 88.0879 217.104 89.5479 216.554 91.0713C216.004 92.5947 215.58 94.097 215.284 95.5781C215.03 97.0592 214.903 98.3923 214.903 99.5771C214.903 101.185 215.051 103.005 215.348 105.036C215.686 107.025 216.257 108.908 217.062 110.686C217.866 112.463 218.924 113.965 220.235 115.192C221.547 116.42 223.198 117.033 225.187 117.033C226.752 117.033 228.106 116.695 229.249 116.018C230.392 115.298 231.365 114.388 232.169 113.288C232.973 112.146 233.629 110.855 234.137 109.416C234.687 107.935 235.089 106.433 235.343 104.909C235.639 103.386 235.829 101.883 235.914 100.402C236.041 98.8789 236.104 97.5247 236.104 96.3398V91.96L247.657 87.8975V118.303ZM311.007 115.446C310.499 116.547 309.864 117.583 309.103 118.557C308.341 119.53 307.452 120.397 306.437 121.159C305.463 121.921 304.384 122.535 303.199 123C302.057 123.423 300.851 123.635 299.581 123.635C296.238 123.635 293.826 122.725 292.345 120.905C290.906 119.043 290.187 116.525 290.187 113.352V112.209C289.425 113.648 288.557 115.087 287.584 116.525C286.653 117.964 285.574 119.255 284.347 120.397C283.162 121.54 281.829 122.471 280.348 123.19C278.867 123.91 277.216 124.27 275.396 124.27C272.646 124.27 270.213 123.741 268.097 122.683C265.981 121.625 264.203 120.207 262.765 118.43C261.326 116.61 260.247 114.494 259.527 112.082C258.808 109.67 258.448 107.11 258.448 104.401C258.448 100.72 259.083 97.0592 260.353 93.4199C261.664 89.7383 263.484 86.4587 265.812 83.5811C268.181 80.7035 270.995 78.376 274.254 76.5986C277.555 74.779 281.215 73.8691 285.235 73.8691C286.843 73.8691 288.451 74.0173 290.06 74.3135C291.668 74.6097 293.191 75.0964 294.63 75.7734C296.111 76.4082 297.444 77.2546 298.629 78.3125C299.856 79.3704 300.851 80.6611 301.612 82.1846L292.154 86.1836C291.646 85.3796 291.054 84.6178 290.377 83.8984C289.742 83.1367 289.023 82.4808 288.219 81.9307C287.457 81.3805 286.632 80.9362 285.743 80.5977C284.854 80.2591 283.924 80.0898 282.95 80.0898C280.75 80.0898 278.782 80.7669 277.047 82.1211C275.354 83.4753 273.894 85.1468 272.667 87.1357C271.482 89.1247 270.572 91.2406 269.938 93.4834C269.303 95.7262 268.985 97.7575 268.985 99.5771C268.985 101.185 269.133 103.005 269.43 105.036C269.768 107.025 270.34 108.908 271.144 110.686C271.948 112.463 273.006 113.965 274.317 115.192C275.629 116.42 277.28 117.033 279.269 117.033C280.834 117.033 282.188 116.695 283.331 116.018C284.474 115.298 285.447 114.388 286.251 113.288C287.055 112.146 287.711 110.855 288.219 109.416C288.769 107.935 289.171 106.433 289.425 104.909C289.721 103.386 289.911 101.883 289.996 100.402C290.123 98.8789 290.187 97.5247 290.187 96.3398V91.96L301.739 87.8975V113.669C301.739 114.515 301.951 115.298 302.374 116.018C302.797 116.695 303.453 117.033 304.342 117.033C305.4 117.033 306.352 116.652 307.198 115.891C308.087 115.087 308.785 114.283 309.293 113.479L311.007 115.446Z" fill="black"/>
</svg>
